<svg width="900" height="480" xmlns="http://www.w3.org/2000/svg" font-family="'Segoe UI',monospace">
  <defs>
    <linearGradient id="chartbg" x1="0" y1="0" x2="0" y2="1">
      <stop offset="0%" stop-color="#161b22"/>
      <stop offset="100%" stop-color="#0d1117"/>
    </linearGradient>
    <clipPath id="chartclip"><rect x="72" y="45" width="800" height="365"/></clipPath>
  </defs>

  <!-- Page background -->
  <rect width="900" height="480" fill="#0d1117" rx="8"/>

  <!-- Title bar -->
  <text x="18" y="22" fill="#58a6ff" font-size="15" font-weight="600">Stock Forecasting Pipeline</text>
  <text x="18" y="38" fill="#8b949e" font-size="11">XGBoost · Prophet · LSTM — tracked with MLflow</text>

  <!-- Ticker chip -->
  <rect x="720" y="8" width="52" height="20" fill="#21262d" rx="4"/>
  <text x="746" y="22" fill="#c9d1d9" font-size="11" text-anchor="middle">AAPL</text>
  <rect x="780" y="8" width="45" height="20" fill="#21262d" rx="4"/>
  <text x="802" y="22" fill="#c9d1d9" font-size="11" text-anchor="middle">1 year</text>

  <!-- Chart area -->
  <rect x="72" y="45" width="800" height="365" fill="#0d1117" stroke="#21262d" stroke-width="1" rx="3"/>

  <!-- Horizontal grid lines -->
  <g stroke="#21262d" stroke-width="1">
    <line x1="72" y1="118" x2="872" y2="118"/>
    <line x1="72" y1="167" x2="872" y2="167"/>
    <line x1="72" y1="225" x2="872" y2="225"/>
    <line x1="72" y1="283" x2="872" y2="283"/>
    <line x1="72" y1="342" x2="872" y2="342"/>
  </g>

  <!-- Y-axis labels -->
  <g fill="#8b949e" font-size="11" text-anchor="end">
    <text x="68" y="50">$200</text>
    <text x="68" y="122">$195</text>
    <text x="68" y="171">$190</text>
    <text x="68" y="229">$185</text>
    <text x="68" y="287">$180</text>
    <text x="68" y="346">$175</text>
    <text x="68" y="413">$170</text>
  </g>

  <!-- CANDLES (green=#3fb950, red=#f85149) -->
  <!-- i=0 G x=75 -->  <line x1="85" y1="318" x2="85" y2="361" stroke="#3fb950" stroke-width="1.5"/><rect x="75" y="330" width="20" height="23" fill="#3fb950"/>
  <!-- i=1 G x=107 --> <line x1="117" y1="296" x2="117" y2="340" stroke="#3fb950" stroke-width="1.5"/><rect x="107" y="307" width="20" height="23" fill="#3fb950"/>
  <!-- i=2 R x=139 --> <line x1="149" y1="299" x2="149" y2="325" stroke="#f85149" stroke-width="1.5"/><rect x="139" y="307" width="20" height="11" fill="#f85149"/>
  <!-- i=3 R x=171 --> <line x1="181" y1="307" x2="181" y2="352" stroke="#f85149" stroke-width="1.5"/><rect x="171" y="318" width="20" height="24" fill="#f85149"/>
  <!-- i=4 G x=203 --> <line x1="213" y1="295" x2="213" y2="353" stroke="#3fb950" stroke-width="1.5"/><rect x="203" y="307" width="20" height="35" fill="#3fb950"/>
  <!-- i=5 G x=235 --> <line x1="245" y1="272" x2="245" y2="318" stroke="#3fb950" stroke-width="1.5"/><rect x="235" y="283" width="20" height="24" fill="#3fb950"/>
  <!-- i=6 G x=267 --> <line x1="277" y1="238" x2="277" y2="293" stroke="#3fb950" stroke-width="1.5"/><rect x="267" y="248" width="20" height="35" fill="#3fb950"/>
  <!-- i=7 R x=299 --> <line x1="309" y1="240" x2="309" y2="268" stroke="#f85149" stroke-width="1.5"/><rect x="299" y="248" width="20" height="12" fill="#f85149"/>
  <!-- i=8 G x=331 --> <line x1="341" y1="226" x2="341" y2="270" stroke="#3fb950" stroke-width="1.5"/><rect x="331" y="237" width="20" height="23" fill="#3fb950"/>
  <!-- i=9 R x=363 --> <line x1="373" y1="226" x2="373" y2="270" stroke="#f85149" stroke-width="1.5"/><rect x="363" y="237" width="20" height="23" fill="#f85149"/>
  <!-- i=10 G x=395 --> <line x1="405" y1="213" x2="405" y2="272" stroke="#3fb950" stroke-width="1.5"/><rect x="395" y="225" width="20" height="35" fill="#3fb950"/>
  <!-- i=11 G x=427 --> <line x1="437" y1="191" x2="437" y2="235" stroke="#3fb950" stroke-width="1.5"/><rect x="427" y="202" width="20" height="23" fill="#3fb950"/>
  <!-- i=12 R x=459 --> <line x1="469" y1="195" x2="469" y2="220" stroke="#f85149" stroke-width="1.5"/><rect x="459" y="202" width="20" height="11" fill="#f85149"/>
  <!-- i=13 G x=491 --> <line x1="501" y1="179" x2="501" y2="223" stroke="#3fb950" stroke-width="1.5"/><rect x="491" y="190" width="20" height="23" fill="#3fb950"/>
  <!-- i=14 G x=523 --> <line x1="533" y1="156" x2="533" y2="200" stroke="#3fb950" stroke-width="1.5"/><rect x="523" y="167" width="20" height="23" fill="#3fb950"/>
  <!-- i=15 R x=555 --> <line x1="565" y1="157" x2="565" y2="200" stroke="#f85149" stroke-width="1.5"/><rect x="555" y="167" width="20" height="23" fill="#f85149"/>
  <!-- i=16 G x=587 --> <line x1="597" y1="143" x2="597" y2="202" stroke="#3fb950" stroke-width="1.5"/><rect x="587" y="155" width="20" height="35" fill="#3fb950"/>
  <!-- i=17 G x=619 --> <line x1="629" y1="121" x2="629" y2="165" stroke="#3fb950" stroke-width="1.5"/><rect x="619" y="132" width="20" height="23" fill="#3fb950"/>
  <!-- i=18 R x=651 --> <line x1="661" y1="125" x2="661" y2="150" stroke="#f85149" stroke-width="1.5"/><rect x="651" y="132" width="20" height="11" fill="#f85149"/>
  <!-- i=19 G x=683 --> <line x1="693" y1="96"  x2="693" y2="155" stroke="#3fb950" stroke-width="1.5"/><rect x="683" y="108" width="20" height="35" fill="#3fb950"/>

  <!-- Forecast region shading -->
  <rect x="714" y="45" width="158" height="365" fill="#58a6ff" opacity="0.04"/>
  <line x1="714" y1="45" x2="714" y2="410" stroke="#58a6ff" stroke-width="1" stroke-dasharray="4,3" opacity="0.35"/>
  <text x="717" y="60" fill="#58a6ff" font-size="9" opacity="0.6">Forecast</text>

  <!-- i=20 R forecast --> <line x1="725" y1="100" x2="725" y2="130" stroke="#f85149" stroke-width="1.5" opacity="0.75"/><rect x="715" y="108" width="20" height="12" fill="#f85149" opacity="0.75"/>
  <!-- i=21 G forecast --> <line x1="757" y1="86"  x2="757" y2="130" stroke="#3fb950" stroke-width="1.5" opacity="0.75"/><rect x="747" y="97"  width="20" height="23" fill="#3fb950" opacity="0.75"/>
  <!-- i=22 G forecast --> <line x1="789" y1="77"  x2="789" y2="105" stroke="#3fb950" stroke-width="1.5" opacity="0.75"/><rect x="779" y="85"  width="20" height="12" fill="#3fb950" opacity="0.75"/>
  <!-- i=23 R forecast --> <line x1="821" y1="77"  x2="821" y2="105" stroke="#f85149" stroke-width="1.5" opacity="0.75"/><rect x="811" y="85"  width="20" height="12" fill="#f85149" opacity="0.75"/>
  <!-- i=24 G forecast --> <line x1="853" y1="62"  x2="853" y2="107" stroke="#3fb950" stroke-width="1.5" opacity="0.75"/><rect x="843" y="73"  width="20" height="24" fill="#3fb950" opacity="0.75"/>

  <!-- MA21 line (smooth path through close midpoints) -->
  <path d="M85,342 C117,325 149,316 181,330 C213,322 245,290 277,262 C309,252 341,245 373,248 C405,236 437,210 469,207 C501,192 533,175 565,178 C597,165 629,138 661,137 C679,125 693,115 714,112" stroke="#d29922" stroke-width="1.5" fill="none" opacity="0.85"/>

  <!-- XGBoost Forecast dotted line -->
  <path d="M714,112 L725,114 L757,100 L789,88 L821,88 L853,76" stroke="#bc8cff" stroke-width="2" fill="none" stroke-dasharray="6,3"/>

  <!-- X-axis date labels -->
  <g fill="#8b949e" font-size="10" text-anchor="middle">
    <text x="107" y="428">Jan 6</text>
    <text x="267" y="428">Jan 14</text>
    <text x="427" y="428">Jan 22</text>
    <text x="587" y="428">Jan 30</text>
    <text x="714" y="428">Feb 5</text>
    <text x="853" y="428">Feb 10</text>
  </g>

  <!-- Legend -->
  <g font-size="11">
    <line x1="72" y1="453" x2="92" y2="453" stroke="#d29922" stroke-width="1.5"/>
    <text x="96" y="457" fill="#8b949e">MA21</text>
    <line x1="140" y1="453" x2="160" y2="453" stroke="#bc8cff" stroke-width="2" stroke-dasharray="5,2"/>
    <text x="164" y="457" fill="#8b949e">XGBoost Forecast</text>
    <rect x="270" y="447" width="10" height="10" fill="#3fb950"/>
    <text x="284" y="457" fill="#8b949e">Bullish</text>
    <rect x="330" y="447" width="10" height="10" fill="#f85149"/>
    <text x="344" y="457" fill="#8b949e">Bearish</text>
  </g>
</svg>
