<svg width="900" height="480" xmlns="http://www.w3.org/2000/svg" font-family="'Segoe UI',monospace">
  <!-- Page background -->
  <rect width="900" height="480" fill="#f5f5f5"/>

  <!-- Left sidebar -->
  <rect width="200" height="480" fill="#1e1e2e"/>
  <text x="16" y="30" fill="#58a6ff" font-size="14" font-weight="700">MLflow</text>
  <text x="16" y="52" fill="#8b8fa8" font-size="11">Experiments</text>
  <rect x="0" y="60" width="200" height="28" fill="#2a2a3e"/>
  <text x="16" y="79" fill="#c9d1d9" font-size="12">📊 stock-forecasting</text>
  <text x="16" y="108" fill="#8b8fa8" font-size="11">Models</text>
  <text x="16" y="126" fill="#8b8fa8" font-size="12">xgb-AAPL</text>
  <text x="16" y="144" fill="#8b8fa8" font-size="12">xgb-MSFT</text>
  <text x="16" y="162" fill="#8b8fa8" font-size="12">xgb-NVDA</text>

  <!-- Main panel -->
  <rect x="200" y="0" width="700" height="480" fill="#ffffff"/>

  <!-- Top bar -->
  <rect x="200" y="0" width="700" height="48" fill="#fafafa" stroke="#e0e0e0" stroke-width="1"/>
  <text x="220" y="20" fill="#1e1e2e" font-size="13" font-weight="600">Experiment: stock-forecasting</text>
  <text x="220" y="38" fill="#777" font-size="11">6 runs · Last trained: 2026-05-18</text>
  <rect x="780" y="10" width="100" height="26" fill="#1976d2" rx="4"/>
  <text x="830" y="28" fill="#fff" font-size="12" text-anchor="middle">Compare</text>

  <!-- Table header -->
  <rect x="200" y="58" width="700" height="28" fill="#f0f0f0" stroke="#e0e0e0" stroke-width="1"/>
  <g fill="#555" font-size="11" font-weight="600">
    <text x="215" y="76">Run Name</text>
    <text x="375" y="76">Ticker</text>
    <text x="425" y="76">Model</text>
    <text x="510" y="76">RMSE ↑</text>
    <text x="575" y="76">MAE</text>
    <text x="630" y="76">MAPE</text>
    <text x="690" y="76">DA%</text>
    <text x="750" y="76">Status</text>
  </g>

  <!-- Row 1 - highlighted (best) -->
  <rect x="200" y="86" width="700" height="32" fill="#e8f5e9" stroke="#e0e0e0" stroke-width="0.5"/>
  <text x="215" y="106" fill="#333" font-size="11">xgboost_AAPL</text>
  <text x="375" y="106" fill="#333" font-size="11">AAPL</text>
  <text x="425" y="106" fill="#1e88e5" font-size="11">xgboost</text>
  <text x="510" y="106" fill="#2e7d32" font-size="11" font-weight="600">2.35</text>
  <text x="575" y="106" fill="#333" font-size="11">1.42</text>
  <text x="630" y="106" fill="#333" font-size="11">1.28%</text>
  <text x="690" y="106" fill="#333" font-size="11">54.8%</text>
  <rect x="748" y="94" width="68" height="18" fill="#2e7d32" rx="9"/>
  <text x="782" y="107" fill="#fff" font-size="10" text-anchor="middle">Production</text>

  <!-- Row 2 -->
  <rect x="200" y="118" width="700" height="32" fill="#fff" stroke="#e0e0e0" stroke-width="0.5"/>
  <text x="215" y="138" fill="#333" font-size="11">prophet_AAPL</text>
  <text x="375" y="138" fill="#333" font-size="11">AAPL</text>
  <text x="425" y="138" fill="#e65100" font-size="11">prophet</text>
  <text x="510" y="138" fill="#555" font-size="11">4.12</text>
  <text x="575" y="138" fill="#555" font-size="11">2.88</text>
  <text x="630" y="138" fill="#555" font-size="11">2.31%</text>
  <text x="690" y="138" fill="#555" font-size="11">51.2%</text>
  <rect x="748" y="126" width="55" height="18" fill="#607d8b" rx="9"/>
  <text x="775" y="139" fill="#fff" font-size="10" text-anchor="middle">Archived</text>

  <!-- Row 3 -->
  <rect x="200" y="150" width="700" height="32" fill="#f9f9f9" stroke="#e0e0e0" stroke-width="0.5"/>
  <text x="215" y="170" fill="#333" font-size="11">lstm_AAPL</text>
  <text x="375" y="170" fill="#333" font-size="11">AAPL</text>
  <text x="425" y="170" fill="#7b1fa2" font-size="11">lstm</text>
  <text x="510" y="170" fill="#555" font-size="11">3.08</text>
  <text x="575" y="170" fill="#555" font-size="11">2.11</text>
  <text x="630" y="170" fill="#555" font-size="11">1.74%</text>
  <text x="690" y="170" fill="#555" font-size="11">53.1%</text>
  <rect x="748" y="158" width="55" height="18" fill="#607d8b" rx="9"/>
  <text x="775" y="171" fill="#fff" font-size="10" text-anchor="middle">Archived</text>

  <!-- Row 4 -->
  <rect x="200" y="182" width="700" height="32" fill="#e8f5e9" stroke="#e0e0e0" stroke-width="0.5"/>
  <text x="215" y="202" fill="#333" font-size="11">xgboost_MSFT</text>
  <text x="375" y="202" fill="#333" font-size="11">MSFT</text>
  <text x="425" y="202" fill="#1e88e5" font-size="11">xgboost</text>
  <text x="510" y="202" fill="#2e7d32" font-size="11" font-weight="600">1.87</text>
  <text x="575" y="202" fill="#333" font-size="11">1.23</text>
  <text x="630" y="202" fill="#333" font-size="11">0.97%</text>
  <text x="690" y="202" fill="#333" font-size="11">56.2%</text>
  <rect x="748" y="190" width="68" height="18" fill="#2e7d32" rx="9"/>
  <text x="782" y="203" fill="#fff" font-size="10" text-anchor="middle">Production</text>

  <!-- Row 5 -->
  <rect x="200" y="214" width="700" height="32" fill="#fff" stroke="#e0e0e0" stroke-width="0.5"/>
  <text x="215" y="234" fill="#333" font-size="11">prophet_MSFT</text>
  <text x="375" y="234" fill="#333" font-size="11">MSFT</text>
  <text x="425" y="234" fill="#e65100" font-size="11">prophet</text>
  <text x="510" y="234" fill="#555" font-size="11">3.45</text>
  <text x="575" y="234" fill="#555" font-size="11">2.34</text>
  <text x="630" y="234" fill="#555" font-size="11">1.85%</text>
  <text x="690" y="234" fill="#555" font-size="11">50.8%</text>
  <rect x="748" y="222" width="55" height="18" fill="#607d8b" rx="9"/>
  <text x="775" y="235" fill="#fff" font-size="10" text-anchor="middle">Archived</text>

  <!-- Row 6 -->
  <rect x="200" y="246" width="700" height="32" fill="#f9f9f9" stroke="#e0e0e0" stroke-width="0.5"/>
  <text x="215" y="266" fill="#333" font-size="11">xgboost_NVDA</text>
  <text x="375" y="266" fill="#333" font-size="11">NVDA</text>
  <text x="425" y="266" fill="#1e88e5" font-size="11">xgboost</text>
  <text x="510" y="266" fill="#2e7d32" font-size="11" font-weight="600">4.56</text>
  <text x="575" y="266" fill="#333" font-size="11">3.12</text>
  <text x="630" y="266" fill="#333" font-size="11">2.43%</text>
  <text x="690" y="266" fill="#333" font-size="11">52.4%</text>
  <rect x="748" y="254" width="68" height="18" fill="#2e7d32" rx="9"/>
  <text x="782" y="267" fill="#fff" font-size="10" text-anchor="middle">Production</text>

  <!-- Metrics chart area -->
  <rect x="210" y="298" width="670" height="160" fill="#fafafa" rx="6" stroke="#e0e0e0" stroke-width="1"/>
  <text x="225" y="318" fill="#555" font-size="12" font-weight="600">RMSE Comparison — AAPL</text>

  <!-- Bar chart background grid -->
  <g stroke="#e8e8e8" stroke-width="1">
    <line x1="300" y1="330" x2="860" y2="330"/>
    <line x1="300" y1="360" x2="860" y2="360"/>
    <line x1="300" y1="390" x2="860" y2="390"/>
    <line x1="300" y1="420" x2="860" y2="420"/>
    <line x1="300" y1="450" x2="860" y2="450"/>
  </g>
  <g fill="#bbb" font-size="9" text-anchor="end">
    <text x="295" y="333">5.0</text>
    <text x="295" y="363">3.75</text>
    <text x="295" y="393">2.5</text>
    <text x="295" y="423">1.25</text>
    <text x="295" y="452">0</text>
  </g>

  <!-- RMSE bars -->
  <!-- xgboost: 2.35 → height = 2.35/5*120 = 56.4 -->
  <rect x="360" y="393" width="60" height="57" fill="#1e88e5" opacity="0.85" rx="3"/>
  <text x="390" y="388" fill="#555" font-size="10" text-anchor="middle">2.35</text>
  <text x="390" y="462" fill="#555" font-size="10" text-anchor="middle">XGBoost</text>

  <!-- prophet: 4.12 → height = 4.12/5*120 = 98.9 -->
  <rect x="480" y="351" width="60" height="99" fill="#e65100" opacity="0.85" rx="3"/>
  <text x="510" y="346" fill="#555" font-size="10" text-anchor="middle">4.12</text>
  <text x="510" y="462" fill="#555" font-size="10" text-anchor="middle">Prophet</text>

  <!-- lstm: 3.08 → height = 3.08/5*120 = 73.9 -->
  <rect x="600" y="376" width="60" height="74" fill="#7b1fa2" opacity="0.85" rx="3"/>
  <text x="630" y="371" fill="#555" font-size="10" text-anchor="middle">3.08</text>
  <text x="630" y="462" fill="#555" font-size="10" text-anchor="middle">LSTM</text>
</svg>
